<svg width="74" height="42" viewBox="0 0 74 42" fill="none" xmlns="http://www.w3.org/2000/svg">
<path d="M7.86 33.836C7.86 34.556 7.748 35.184 7.524 35.72C7.3 36.248 6.984 36.688 6.576 37.04C6.168 37.384 5.68 37.644 5.112 37.82C4.544 37.988 3.92 38.072 3.24 38.072C2.904 38.072 2.532 38.056 2.124 38.024C1.724 38 1.36 37.948 1.032 37.868V29.804C1.36 29.724 1.724 29.672 2.124 29.648C2.532 29.616 2.904 29.6 3.24 29.6C3.92 29.6 4.544 29.688 5.112 29.864C5.68 30.032 6.168 30.292 6.576 30.644C6.984 30.988 7.3 31.428 7.524 31.964C7.748 32.492 7.86 33.116 7.86 33.836ZM3.336 37.052C4.44 37.052 5.264 36.772 5.808 36.212C6.352 35.644 6.624 34.852 6.624 33.836C6.624 32.82 6.352 32.032 5.808 31.472C5.264 30.904 4.44 30.62 3.336 30.62C3.008 30.62 2.752 30.624 2.568 30.632C2.392 30.64 2.268 30.648 2.196 30.656V37.016C2.268 37.024 2.392 37.032 2.568 37.04C2.752 37.048 3.008 37.052 3.336 37.052ZM22.9907 33.836C22.9907 33.124 23.0947 32.496 23.3027 31.952C23.5187 31.408 23.8067 30.956 24.1667 30.596C24.5347 30.228 24.9587 29.952 25.4387 29.768C25.9267 29.584 26.4427 29.492 26.9867 29.492C27.5227 29.492 28.0267 29.584 28.4987 29.768C28.9787 29.952 29.3987 30.228 29.7587 30.596C30.1187 30.956 30.4027 31.408 30.6107 31.952C30.8267 32.496 30.9347 33.124 30.9347 33.836C30.9347 34.548 30.8267 35.176 30.6107 35.72C30.4027 36.264 30.1187 36.72 29.7587 37.088C29.3987 37.448 28.9787 37.72 28.4987 37.904C28.0267 38.088 27.5227 38.18 26.9867 38.18C26.4427 38.18 25.9267 38.088 25.4387 37.904C24.9587 37.72 24.5347 37.448 24.1667 37.088C23.8067 36.72 23.5187 36.264 23.3027 35.72C23.0947 35.176 22.9907 34.548 22.9907 33.836ZM24.2147 33.836C24.2147 34.34 24.2787 34.8 24.4067 35.216C24.5347 35.624 24.7147 35.972 24.9467 36.26C25.1867 36.548 25.4747 36.772 25.8107 36.932C26.1547 37.084 26.5387 37.16 26.9627 37.16C27.3867 37.16 27.7667 37.084 28.1027 36.932C28.4387 36.772 28.7227 36.548 28.9547 36.26C29.1947 35.972 29.3787 35.624 29.5067 35.216C29.6347 34.8 29.6987 34.34 29.6987 33.836C29.6987 33.332 29.6347 32.876 29.5067 32.468C29.3787 32.052 29.1947 31.7 28.9547 31.412C28.7227 31.124 28.4387 30.904 28.1027 30.752C27.7667 30.592 27.3867 30.512 26.9627 30.512C26.5387 30.512 26.1547 30.592 25.8107 30.752C25.4747 30.904 25.1867 31.124 24.9467 31.412C24.7147 31.7 24.5347 32.052 24.4067 32.468C24.2787 32.876 24.2147 33.332 24.2147 33.836ZM51.4825 33.908H52.6465V37.796C52.5505 37.828 52.4105 37.864 52.2265 37.904C52.0505 37.944 51.8425 37.984 51.6025 38.024C51.3705 38.064 51.1145 38.096 50.8345 38.12C50.5545 38.152 50.2705 38.168 49.9825 38.168C49.3985 38.168 48.8665 38.072 48.3865 37.88C47.9065 37.688 47.4945 37.408 47.1505 37.04C46.8065 36.672 46.5385 36.22 46.3465 35.684C46.1625 35.148 46.0705 34.532 46.0705 33.836C46.0705 33.14 46.1745 32.524 46.3825 31.988C46.5985 31.444 46.8865 30.988 47.2465 30.62C47.6065 30.252 48.0265 29.972 48.5065 29.78C48.9945 29.588 49.5145 29.492 50.0665 29.492C50.4425 29.492 50.7745 29.516 51.0625 29.564C51.3585 29.612 51.6105 29.668 51.8185 29.732C52.0265 29.796 52.1945 29.86 52.3225 29.924C52.4585 29.988 52.5505 30.036 52.5985 30.068L52.2265 31.04C51.9945 30.888 51.6865 30.764 51.3025 30.668C50.9185 30.564 50.5265 30.512 50.1265 30.512C49.7025 30.512 49.3145 30.588 48.9625 30.74C48.6185 30.892 48.3225 31.112 48.0745 31.4C47.8345 31.688 47.6465 32.04 47.5105 32.456C47.3745 32.864 47.3065 33.324 47.3065 33.836C47.3065 34.332 47.3625 34.784 47.4745 35.192C47.5945 35.6 47.7705 35.952 48.0025 36.248C48.2425 36.536 48.5345 36.76 48.8785 36.92C49.2305 37.08 49.6425 37.16 50.1145 37.16C50.4505 37.16 50.7345 37.144 50.9665 37.112C51.2065 37.072 51.3785 37.036 51.4825 37.004V33.908ZM70.141 37.172C71.357 37.172 71.965 36.756 71.965 35.924C71.965 35.668 71.909 35.452 71.797 35.276C71.693 35.092 71.549 34.936 71.365 34.808C71.181 34.672 70.969 34.556 70.729 34.46C70.497 34.364 70.249 34.268 69.985 34.172C69.681 34.068 69.393 33.952 69.121 33.824C68.849 33.688 68.613 33.532 68.413 33.356C68.213 33.172 68.053 32.956 67.933 32.708C67.821 32.46 67.765 32.16 67.765 31.808C67.765 31.08 68.013 30.512 68.509 30.104C69.005 29.696 69.689 29.492 70.561 29.492C71.065 29.492 71.521 29.548 71.929 29.66C72.345 29.764 72.649 29.88 72.841 30.008L72.469 30.956C72.301 30.852 72.049 30.752 71.713 30.656C71.385 30.552 71.001 30.5 70.561 30.5C70.337 30.5 70.129 30.524 69.937 30.572C69.745 30.62 69.577 30.692 69.433 30.788C69.289 30.884 69.173 31.008 69.085 31.16C69.005 31.304 68.965 31.476 68.965 31.676C68.965 31.9 69.009 32.088 69.097 32.24C69.185 32.392 69.309 32.528 69.469 32.648C69.629 32.76 69.813 32.864 70.021 32.96C70.237 33.056 70.473 33.152 70.729 33.248C71.089 33.392 71.417 33.536 71.713 33.68C72.017 33.824 72.277 33.996 72.493 34.196C72.717 34.396 72.889 34.636 73.009 34.916C73.129 35.188 73.189 35.52 73.189 35.912C73.189 36.64 72.921 37.2 72.385 37.592C71.857 37.984 71.109 38.18 70.141 38.18C69.813 38.18 69.509 38.156 69.229 38.108C68.957 38.068 68.713 38.02 68.497 37.964C68.281 37.9 68.093 37.836 67.933 37.772C67.781 37.7 67.661 37.64 67.573 37.592L67.921 36.632C68.105 36.736 68.385 36.852 68.761 36.98C69.137 37.108 69.597 37.172 70.141 37.172Z" fill="white"/>
<path d="M9.96 7.14H13.08V21H9.96V15.12H4.72V21H1.6V7.14H4.72V12.44H9.96V7.14ZM25.5675 21C25.4208 20.52 25.2542 20.0267 25.0675 19.52C24.8942 19.0133 24.7208 18.5067 24.5475 18H19.1475C18.9742 18.5067 18.7942 19.0133 18.6075 19.52C18.4342 20.0267 18.2742 20.52 18.1275 21H14.8875C15.4075 19.5067 15.9008 18.1267 16.3675 16.86C16.8342 15.5933 17.2875 14.4 17.7275 13.28C18.1808 12.16 18.6208 11.1 19.0475 10.1C19.4875 9.08667 19.9408 8.1 20.4075 7.14H23.3875C23.8408 8.1 24.2875 9.08667 24.7275 10.1C25.1675 11.1 25.6075 12.16 26.0475 13.28C26.5008 14.4 26.9608 15.5933 27.4275 16.86C27.8942 18.1267 28.3875 19.5067 28.9075 21H25.5675ZM21.8275 10.28C21.7608 10.48 21.6608 10.7533 21.5275 11.1C21.3942 11.4467 21.2408 11.8467 21.0675 12.3C20.8942 12.7533 20.7008 13.2533 20.4875 13.8C20.2875 14.3467 20.0808 14.92 19.8675 15.52H23.8075C23.5942 14.92 23.3875 14.3467 23.1875 13.8C22.9875 13.2533 22.7942 12.7533 22.6075 12.3C22.4342 11.8467 22.2808 11.4467 22.1475 11.1C22.0142 10.7533 21.9075 10.48 21.8275 10.28ZM34.8616 6.98C36.9282 6.98 38.5149 7.34667 39.6216 8.08C40.7282 8.8 41.2816 9.98667 41.2816 11.64C41.2816 13.3067 40.7216 14.5133 39.6016 15.26C38.4816 15.9933 36.8816 16.36 34.8016 16.36H33.8216V21H30.7016V7.34C31.3816 7.20667 32.1016 7.11333 32.8616 7.06C33.6216 7.00667 34.2882 6.98 34.8616 6.98ZM35.0616 9.64C34.8349 9.64 34.6082 9.64667 34.3816 9.66C34.1682 9.67333 33.9816 9.68667 33.8216 9.7V13.7H34.8016C35.8816 13.7 36.6949 13.5533 37.2416 13.26C37.7882 12.9667 38.0616 12.42 38.0616 11.62C38.0616 11.2333 37.9882 10.9133 37.8416 10.66C37.7082 10.4067 37.5082 10.2067 37.2416 10.06C36.9882 9.9 36.6749 9.79333 36.3016 9.74C35.9282 9.67333 35.5149 9.64 35.0616 9.64ZM47.7327 6.98C49.7993 6.98 51.386 7.34667 52.4927 8.08C53.5993 8.8 54.1527 9.98667 54.1527 11.64C54.1527 13.3067 53.5927 14.5133 52.4727 15.26C51.3527 15.9933 49.7527 16.36 47.6727 16.36H46.6927V21H43.5727V7.34C44.2527 7.20667 44.9727 7.11333 45.7327 7.06C46.4927 7.00667 47.1593 6.98 47.7327 6.98ZM47.9327 9.64C47.706 9.64 47.4793 9.64667 47.2527 9.66C47.0393 9.67333 46.8527 9.68667 46.6927 9.7V13.7H47.6727C48.7527 13.7 49.566 13.5533 50.1127 13.26C50.6593 12.9667 50.9327 12.42 50.9327 11.62C50.9327 11.2333 50.8593 10.9133 50.7127 10.66C50.5793 10.4067 50.3793 10.2067 50.1127 10.06C49.8593 9.9 49.546 9.79333 49.1727 9.74C48.7993 9.67333 48.386 9.64 47.9327 9.64ZM61.3284 12.84C61.8884 11.8933 62.4218 10.9467 62.9284 10C63.4351 9.05333 63.9018 8.1 64.3284 7.14H67.7684C67.0084 8.63333 66.2218 10.08 65.4084 11.48C64.5951 12.88 63.7351 14.2867 62.8284 15.7V21H59.7084V15.74C58.8018 14.3267 57.9351 12.9133 57.1084 11.5C56.2951 10.0867 55.5084 8.63333 54.7484 7.14H58.3684C58.7951 8.1 59.2551 9.05333 59.7484 10C60.2418 10.9467 60.7684 11.8933 61.3284 12.84ZM72.5459 10.72C72.5459 11.8 72.5059 12.8067 72.4259 13.74C72.3459 14.6733 72.2393 15.62 72.1059 16.58H69.8259C69.6926 15.62 69.5793 14.6733 69.4859 13.74C69.4059 12.8067 69.3659 11.8 69.3659 10.72V7.14H72.5459V10.72ZM72.8059 19.42C72.8059 20.0067 72.6126 20.46 72.2259 20.78C71.8526 21.1 71.4259 21.26 70.9459 21.26C70.4659 21.26 70.0326 21.1 69.6459 20.78C69.2726 20.46 69.0859 20.0067 69.0859 19.42C69.0859 18.8333 69.2726 18.38 69.6459 18.06C70.0326 17.74 70.4659 17.58 70.9459 17.58C71.4259 17.58 71.8526 17.74 72.2259 18.06C72.6126 18.38 72.8059 18.8333 72.8059 19.42Z" fill="white"/>
</svg>
